G04*
G04 #@! TF.GenerationSoftware,Altium Limited,Altium Designer,18.0.7 (293)*
G04*
G04 Layer_Physical_Order=1*
G04 Layer_Color=255*
%FSLAX24Y24*%
%MOIN*%
G70*
G01*
G75*
%ADD19R,0.0524X0.0524*%
%ADD20R,0.0354X0.0787*%
%ADD21R,0.0787X0.0354*%
%ADD22R,0.0472X0.0315*%
%ADD23R,0.0394X0.0374*%
%ADD24R,0.0315X0.0354*%
%ADD25R,0.0669X0.0984*%
%ADD26R,0.0500X0.0550*%
%ADD27R,0.0374X0.0394*%
%ADD28R,0.0550X0.0500*%
%ADD29R,0.0315X0.0472*%
%ADD30R,0.0945X0.1299*%
%ADD31R,0.0945X0.0394*%
%ADD32R,0.0787X0.1614*%
%ADD56C,0.0315*%
%ADD57C,0.0157*%
%ADD58C,0.1100*%
%ADD59C,0.0118*%
%ADD60C,0.0591*%
%ADD61R,0.0630X0.0630*%
%ADD62C,0.0630*%
%ADD63C,0.1260*%
%ADD64C,0.1181*%
%ADD65R,0.0630X0.0630*%
%ADD66C,0.0315*%
G36*
X50728Y30293D02*
X50743Y30278D01*
X50750Y30260D01*
X50750Y26008D01*
X50735Y25964D01*
Y25964D01*
X48900Y24129D01*
Y23952D01*
X48844D01*
X48813Y23946D01*
X48787Y23929D01*
X48770Y23903D01*
X48763Y23872D01*
Y16785D01*
X48770Y16755D01*
X48787Y16729D01*
X48813Y16711D01*
X48844Y16705D01*
X48900D01*
Y16421D01*
X50735Y14585D01*
X50739Y14582D01*
X50744Y14574D01*
X50748Y14565D01*
X50750Y14555D01*
X50750Y14550D01*
X50750D01*
Y9990D01*
X50743Y9972D01*
X50728Y9957D01*
X50710Y9950D01*
X9990D01*
X9972Y9957D01*
X9957Y9972D01*
X9950Y9990D01*
Y10000D01*
Y30250D01*
Y30260D01*
X9957Y30278D01*
X9972Y30293D01*
X9990Y30300D01*
X50710D01*
X50728Y30293D01*
D02*
G37*
%LPC*%
G36*
X47450Y28912D02*
Y28550D01*
X47812D01*
X47804Y28608D01*
X47762Y28709D01*
X47696Y28796D01*
X47609Y28862D01*
X47508Y28904D01*
X47450Y28912D01*
D02*
G37*
G36*
X47350D02*
X47292Y28904D01*
X47191Y28862D01*
X47104Y28796D01*
X47038Y28709D01*
X46996Y28608D01*
X46988Y28550D01*
X47350D01*
Y28912D01*
D02*
G37*
G36*
X49900Y29912D02*
X49761Y29898D01*
X49627Y29858D01*
X49504Y29792D01*
X49396Y29704D01*
X49308Y29596D01*
X49242Y29473D01*
X49202Y29339D01*
X49188Y29200D01*
X49202Y29061D01*
X49242Y28927D01*
X49308Y28804D01*
X49396Y28696D01*
X49504Y28608D01*
X49627Y28542D01*
X49761Y28502D01*
X49900Y28488D01*
X50039Y28502D01*
X50173Y28542D01*
X50296Y28608D01*
X50404Y28696D01*
X50492Y28804D01*
X50558Y28927D01*
X50598Y29061D01*
X50612Y29200D01*
X50598Y29339D01*
X50558Y29473D01*
X50492Y29596D01*
X50404Y29704D01*
X50296Y29792D01*
X50173Y29858D01*
X50039Y29898D01*
X49900Y29912D01*
D02*
G37*
G36*
X34397Y29010D02*
X34300Y28997D01*
X34209Y28959D01*
X34130Y28899D01*
X34071Y28821D01*
X34033Y28730D01*
X34020Y28632D01*
X34033Y28535D01*
X34071Y28444D01*
X34130Y28366D01*
X34209Y28306D01*
X34300Y28268D01*
X34397Y28255D01*
X34495Y28268D01*
X34586Y28306D01*
X34664Y28366D01*
X34724Y28444D01*
X34762Y28535D01*
X34774Y28632D01*
X34762Y28730D01*
X34724Y28821D01*
X34664Y28899D01*
X34586Y28959D01*
X34495Y28997D01*
X34397Y29010D01*
D02*
G37*
G36*
X31326D02*
X31229Y28997D01*
X31138Y28959D01*
X31060Y28899D01*
X31000Y28821D01*
X30962Y28730D01*
X30949Y28632D01*
X30962Y28535D01*
X31000Y28444D01*
X31060Y28366D01*
X31138Y28306D01*
X31229Y28268D01*
X31326Y28255D01*
X31424Y28268D01*
X31515Y28306D01*
X31593Y28366D01*
X31653Y28444D01*
X31691Y28535D01*
X31704Y28632D01*
X31691Y28730D01*
X31653Y28821D01*
X31593Y28899D01*
X31515Y28959D01*
X31424Y28997D01*
X31326Y29010D01*
D02*
G37*
G36*
X46400Y28897D02*
X46297Y28884D01*
X46201Y28844D01*
X46119Y28781D01*
X46056Y28699D01*
X46016Y28603D01*
X46003Y28500D01*
X46016Y28397D01*
X46056Y28301D01*
X46119Y28219D01*
X46201Y28156D01*
X46297Y28116D01*
X46400Y28103D01*
X46503Y28116D01*
X46599Y28156D01*
X46681Y28219D01*
X46744Y28301D01*
X46784Y28397D01*
X46797Y28500D01*
X46784Y28603D01*
X46744Y28699D01*
X46681Y28781D01*
X46599Y28844D01*
X46503Y28884D01*
X46400Y28897D01*
D02*
G37*
G36*
X45400D02*
X45297Y28884D01*
X45201Y28844D01*
X45119Y28781D01*
X45056Y28699D01*
X45016Y28603D01*
X45003Y28500D01*
X45016Y28397D01*
X45056Y28301D01*
X45119Y28219D01*
X45201Y28156D01*
X45297Y28116D01*
X45400Y28103D01*
X45503Y28116D01*
X45599Y28156D01*
X45681Y28219D01*
X45744Y28301D01*
X45784Y28397D01*
X45797Y28500D01*
X45784Y28603D01*
X45744Y28699D01*
X45681Y28781D01*
X45599Y28844D01*
X45503Y28884D01*
X45400Y28897D01*
D02*
G37*
G36*
X44400D02*
X44297Y28884D01*
X44201Y28844D01*
X44119Y28781D01*
X44056Y28699D01*
X44016Y28603D01*
X44003Y28500D01*
X44016Y28397D01*
X44056Y28301D01*
X44119Y28219D01*
X44201Y28156D01*
X44297Y28116D01*
X44400Y28103D01*
X44503Y28116D01*
X44599Y28156D01*
X44681Y28219D01*
X44744Y28301D01*
X44784Y28397D01*
X44797Y28500D01*
X44784Y28603D01*
X44744Y28699D01*
X44681Y28781D01*
X44599Y28844D01*
X44503Y28884D01*
X44400Y28897D01*
D02*
G37*
G36*
X47350Y28450D02*
X46988D01*
X46996Y28392D01*
X47038Y28291D01*
X47104Y28204D01*
X47191Y28138D01*
X47292Y28096D01*
X47350Y28088D01*
Y28450D01*
D02*
G37*
G36*
X41700Y28332D02*
X41577Y28320D01*
X41458Y28284D01*
X41349Y28225D01*
X41253Y28147D01*
X41175Y28051D01*
X41116Y27942D01*
X41080Y27823D01*
X41068Y27700D01*
X41080Y27577D01*
X41116Y27458D01*
X41175Y27349D01*
X41253Y27253D01*
X41349Y27175D01*
X41458Y27116D01*
X41577Y27080D01*
X41700Y27068D01*
X41823Y27080D01*
X41942Y27116D01*
X42051Y27175D01*
X42147Y27253D01*
X42225Y27349D01*
X42284Y27458D01*
X42320Y27577D01*
X42332Y27700D01*
X42320Y27823D01*
X42284Y27942D01*
X42225Y28051D01*
X42147Y28147D01*
X42051Y28225D01*
X41942Y28284D01*
X41823Y28320D01*
X41700Y28332D01*
D02*
G37*
G36*
X39700D02*
X39577Y28320D01*
X39458Y28284D01*
X39349Y28225D01*
X39253Y28147D01*
X39175Y28051D01*
X39116Y27942D01*
X39080Y27823D01*
X39068Y27700D01*
X39080Y27577D01*
X39116Y27458D01*
X39175Y27349D01*
X39253Y27253D01*
X39349Y27175D01*
X39458Y27116D01*
X39577Y27080D01*
X39700Y27068D01*
X39823Y27080D01*
X39942Y27116D01*
X40051Y27175D01*
X40147Y27253D01*
X40225Y27349D01*
X40284Y27458D01*
X40320Y27577D01*
X40332Y27700D01*
X40320Y27823D01*
X40284Y27942D01*
X40225Y28051D01*
X40147Y28147D01*
X40051Y28225D01*
X39942Y28284D01*
X39823Y28320D01*
X39700Y28332D01*
D02*
G37*
G36*
X25900Y28082D02*
X25777Y28070D01*
X25658Y28034D01*
X25549Y27975D01*
X25453Y27897D01*
X25375Y27801D01*
X25316Y27692D01*
X25280Y27573D01*
X25268Y27450D01*
X25280Y27327D01*
X25316Y27208D01*
X25375Y27099D01*
X25453Y27003D01*
X25549Y26925D01*
X25658Y26866D01*
X25777Y26830D01*
X25900Y26818D01*
X26023Y26830D01*
X26142Y26866D01*
X26251Y26925D01*
X26347Y27003D01*
X26425Y27099D01*
X26484Y27208D01*
X26520Y27327D01*
X26532Y27450D01*
X26520Y27573D01*
X26484Y27692D01*
X26425Y27801D01*
X26347Y27897D01*
X26251Y27975D01*
X26142Y28034D01*
X26023Y28070D01*
X25900Y28082D01*
D02*
G37*
G36*
X23900D02*
X23777Y28070D01*
X23658Y28034D01*
X23549Y27975D01*
X23453Y27897D01*
X23375Y27801D01*
X23316Y27692D01*
X23280Y27573D01*
X23268Y27450D01*
X23280Y27327D01*
X23316Y27208D01*
X23375Y27099D01*
X23453Y27003D01*
X23549Y26925D01*
X23658Y26866D01*
X23777Y26830D01*
X23900Y26818D01*
X24023Y26830D01*
X24142Y26866D01*
X24251Y26925D01*
X24347Y27003D01*
X24425Y27099D01*
X24484Y27208D01*
X24520Y27327D01*
X24532Y27450D01*
X24520Y27573D01*
X24484Y27692D01*
X24425Y27801D01*
X24347Y27897D01*
X24251Y27975D01*
X24142Y28034D01*
X24023Y28070D01*
X23900Y28082D01*
D02*
G37*
G36*
X21700D02*
X21577Y28070D01*
X21458Y28034D01*
X21349Y27975D01*
X21253Y27897D01*
X21175Y27801D01*
X21116Y27692D01*
X21080Y27573D01*
X21068Y27450D01*
X21080Y27327D01*
X21116Y27208D01*
X21175Y27099D01*
X21253Y27003D01*
X21349Y26925D01*
X21458Y26866D01*
X21577Y26830D01*
X21700Y26818D01*
X21823Y26830D01*
X21942Y26866D01*
X22051Y26925D01*
X22147Y27003D01*
X22225Y27099D01*
X22284Y27208D01*
X22320Y27327D01*
X22332Y27450D01*
X22320Y27573D01*
X22284Y27692D01*
X22225Y27801D01*
X22147Y27897D01*
X22051Y27975D01*
X21942Y28034D01*
X21823Y28070D01*
X21700Y28082D01*
D02*
G37*
G36*
X19700D02*
X19577Y28070D01*
X19458Y28034D01*
X19349Y27975D01*
X19253Y27897D01*
X19175Y27801D01*
X19116Y27692D01*
X19080Y27573D01*
X19068Y27450D01*
X19080Y27327D01*
X19116Y27208D01*
X19175Y27099D01*
X19253Y27003D01*
X19349Y26925D01*
X19458Y26866D01*
X19577Y26830D01*
X19700Y26818D01*
X19823Y26830D01*
X19942Y26866D01*
X20051Y26925D01*
X20147Y27003D01*
X20225Y27099D01*
X20284Y27208D01*
X20320Y27327D01*
X20332Y27450D01*
X20320Y27573D01*
X20284Y27692D01*
X20225Y27801D01*
X20147Y27897D01*
X20051Y27975D01*
X19942Y28034D01*
X19823Y28070D01*
X19700Y28082D01*
D02*
G37*
G36*
X17450D02*
X17327Y28070D01*
X17208Y28034D01*
X17099Y27975D01*
X17003Y27897D01*
X16925Y27801D01*
X16866Y27692D01*
X16830Y27573D01*
X16818Y27450D01*
X16830Y27327D01*
X16866Y27208D01*
X16925Y27099D01*
X17003Y27003D01*
X17099Y26925D01*
X17208Y26866D01*
X17327Y26830D01*
X17450Y26818D01*
X17573Y26830D01*
X17692Y26866D01*
X17801Y26925D01*
X17897Y27003D01*
X17975Y27099D01*
X18034Y27208D01*
X18070Y27327D01*
X18082Y27450D01*
X18070Y27573D01*
X18034Y27692D01*
X17975Y27801D01*
X17897Y27897D01*
X17801Y27975D01*
X17692Y28034D01*
X17573Y28070D01*
X17450Y28082D01*
D02*
G37*
G36*
X15450D02*
X15327Y28070D01*
X15208Y28034D01*
X15099Y27975D01*
X15003Y27897D01*
X14925Y27801D01*
X14866Y27692D01*
X14830Y27573D01*
X14818Y27450D01*
X14830Y27327D01*
X14866Y27208D01*
X14925Y27099D01*
X15003Y27003D01*
X15099Y26925D01*
X15208Y26866D01*
X15327Y26830D01*
X15450Y26818D01*
X15573Y26830D01*
X15692Y26866D01*
X15801Y26925D01*
X15897Y27003D01*
X15975Y27099D01*
X16034Y27208D01*
X16070Y27327D01*
X16082Y27450D01*
X16070Y27573D01*
X16034Y27692D01*
X15975Y27801D01*
X15897Y27897D01*
X15801Y27975D01*
X15692Y28034D01*
X15573Y28070D01*
X15450Y28082D01*
D02*
G37*
G36*
X13250D02*
X13127Y28070D01*
X13008Y28034D01*
X12899Y27975D01*
X12803Y27897D01*
X12725Y27801D01*
X12666Y27692D01*
X12630Y27573D01*
X12618Y27450D01*
X12630Y27327D01*
X12666Y27208D01*
X12725Y27099D01*
X12803Y27003D01*
X12899Y26925D01*
X13008Y26866D01*
X13127Y26830D01*
X13250Y26818D01*
X13373Y26830D01*
X13492Y26866D01*
X13601Y26925D01*
X13697Y27003D01*
X13775Y27099D01*
X13834Y27208D01*
X13870Y27327D01*
X13882Y27450D01*
X13870Y27573D01*
X13834Y27692D01*
X13775Y27801D01*
X13697Y27897D01*
X13601Y27975D01*
X13492Y28034D01*
X13373Y28070D01*
X13250Y28082D01*
D02*
G37*
G36*
X11250D02*
X11127Y28070D01*
X11008Y28034D01*
X10899Y27975D01*
X10803Y27897D01*
X10725Y27801D01*
X10666Y27692D01*
X10630Y27573D01*
X10618Y27450D01*
X10630Y27327D01*
X10666Y27208D01*
X10725Y27099D01*
X10803Y27003D01*
X10899Y26925D01*
X11008Y26866D01*
X11127Y26830D01*
X11250Y26818D01*
X11373Y26830D01*
X11492Y26866D01*
X11601Y26925D01*
X11697Y27003D01*
X11775Y27099D01*
X11834Y27208D01*
X11870Y27327D01*
X11882Y27450D01*
X11870Y27573D01*
X11834Y27692D01*
X11775Y27801D01*
X11697Y27897D01*
X11601Y27975D01*
X11492Y28034D01*
X11373Y28070D01*
X11250Y28082D01*
D02*
G37*
G36*
X50114Y26607D02*
X49828D01*
Y26400D01*
X50114D01*
Y26607D01*
D02*
G37*
G36*
X49728D02*
X49442D01*
Y26400D01*
X49728D01*
Y26607D01*
D02*
G37*
G36*
X50114Y26300D02*
X49828D01*
Y26093D01*
X50114D01*
Y26300D01*
D02*
G37*
G36*
X49728D02*
X49442D01*
Y26093D01*
X49728D01*
Y26300D01*
D02*
G37*
G36*
X48592Y25137D02*
X48345D01*
Y24900D01*
X48592D01*
Y25137D01*
D02*
G37*
G36*
X45887Y25055D02*
X45650D01*
Y24808D01*
X45887D01*
Y25055D01*
D02*
G37*
G36*
X45550D02*
X45313D01*
Y24808D01*
X45550D01*
Y25055D01*
D02*
G37*
G36*
X48592Y24800D02*
X48345D01*
Y24563D01*
X48592D01*
Y24800D01*
D02*
G37*
G36*
X43400Y28897D02*
X43297Y28884D01*
X43201Y28844D01*
X43119Y28781D01*
X43056Y28699D01*
X43016Y28603D01*
X43003Y28500D01*
X43016Y28397D01*
X43056Y28301D01*
X43119Y28219D01*
X43159Y28189D01*
Y26800D01*
X43177Y26708D01*
X43230Y26630D01*
X44334Y25525D01*
X44413Y25473D01*
X44505Y25454D01*
X45298D01*
X45301Y25447D01*
X45313Y25402D01*
X45313Y25402D01*
X45313Y25402D01*
Y25155D01*
X45887D01*
Y25221D01*
X45933Y25240D01*
X46134Y25039D01*
Y24834D01*
X46335D01*
X46975Y24194D01*
X46956Y24148D01*
X43616D01*
Y24725D01*
X43598Y24817D01*
X43545Y24895D01*
X42420Y26020D01*
X42342Y26073D01*
X42250Y26091D01*
X39807D01*
X39715Y26073D01*
X39636Y26020D01*
X32380Y18764D01*
X32327Y18685D01*
X32309Y18593D01*
X32327Y18501D01*
X32380Y18423D01*
X32458Y18371D01*
X32550Y18352D01*
X32642Y18371D01*
X32720Y18423D01*
X39907Y25609D01*
X42150D01*
X43134Y24625D01*
Y24452D01*
X43084Y24437D01*
X43046Y24495D01*
X42120Y25420D01*
X42042Y25473D01*
X41950Y25491D01*
X40107D01*
X40015Y25473D01*
X39936Y25420D01*
X33280Y18764D01*
X33227Y18685D01*
X33209Y18593D01*
X33227Y18501D01*
X33280Y18423D01*
X33358Y18371D01*
X33450Y18352D01*
X33542Y18371D01*
X33620Y18423D01*
X40207Y25009D01*
X41850D01*
X41984Y24875D01*
X41960Y24829D01*
X41900Y24841D01*
X40343D01*
X40251Y24823D01*
X40173Y24770D01*
X34180Y18777D01*
X34127Y18699D01*
X34109Y18607D01*
Y18600D01*
X34127Y18508D01*
X34180Y18430D01*
X34258Y18377D01*
X34350Y18359D01*
X34442Y18377D01*
X34520Y18430D01*
X34534Y18450D01*
X40443Y24359D01*
X41800D01*
X41966Y24194D01*
X41946Y24148D01*
X41619D01*
Y23916D01*
X40232D01*
X40140Y23898D01*
X40062Y23846D01*
X34980Y18764D01*
X34927Y18685D01*
X34909Y18593D01*
X34927Y18501D01*
X34980Y18423D01*
X35058Y18371D01*
X35150Y18352D01*
X35242Y18371D01*
X35320Y18423D01*
X39356Y22459D01*
X39406Y22438D01*
Y21706D01*
X40194D01*
Y22494D01*
X39462D01*
X39441Y22544D01*
X40332Y23434D01*
X41619D01*
Y23203D01*
X43960D01*
X43979Y23157D01*
X43086Y22264D01*
X43052Y22211D01*
X43039Y22150D01*
X43039Y22150D01*
Y21260D01*
X43030Y21254D01*
X42977Y21176D01*
X42959Y21084D01*
X42977Y20991D01*
X43030Y20913D01*
X43108Y20861D01*
X43200Y20843D01*
X43292Y20861D01*
X43370Y20913D01*
X43395Y20950D01*
X43455D01*
X43480Y20913D01*
X43558Y20861D01*
X43650Y20843D01*
X43742Y20861D01*
X43820Y20913D01*
X43873Y20991D01*
X43875Y21002D01*
X43925D01*
X43927Y20991D01*
X43980Y20913D01*
X44058Y20861D01*
X44150Y20843D01*
X44242Y20861D01*
X44309Y20906D01*
X44359Y20889D01*
Y20382D01*
X44359D01*
Y20341D01*
X44359D01*
Y19783D01*
X44313Y19764D01*
X44014Y20064D01*
X43961Y20098D01*
X43900Y20111D01*
X43900Y20111D01*
X42377D01*
X42370Y20120D01*
X42292Y20173D01*
X42200Y20191D01*
X42108Y20173D01*
X42030Y20120D01*
X42004Y20082D01*
X41954Y20097D01*
Y20323D01*
Y20823D01*
Y21323D01*
Y21823D01*
Y22302D01*
X41975D01*
Y22529D01*
X41481D01*
X40988D01*
Y22302D01*
X41009D01*
Y21823D01*
Y21323D01*
Y20823D01*
Y20323D01*
Y19823D01*
Y19323D01*
Y18823D01*
Y18323D01*
Y17823D01*
X41954D01*
Y17932D01*
X42004Y17947D01*
X42030Y17908D01*
X42108Y17856D01*
X42200Y17838D01*
X42292Y17856D01*
X42370Y17908D01*
X42377Y17918D01*
X42705D01*
X43122Y17501D01*
X43103Y17455D01*
X41619D01*
Y16510D01*
X41729D01*
X41762Y16461D01*
X42186Y16036D01*
X42186Y16036D01*
X42239Y16002D01*
X42300Y15989D01*
X42623D01*
X42630Y15980D01*
X42708Y15927D01*
X42800Y15909D01*
X42892Y15927D01*
X42970Y15980D01*
X43023Y16058D01*
X43041Y16150D01*
X43023Y16242D01*
X42970Y16320D01*
X42892Y16373D01*
X42800Y16391D01*
X42708Y16373D01*
X42630Y16320D01*
X42623Y16311D01*
X42367D01*
X42213Y16464D01*
X42233Y16510D01*
X45715D01*
Y15830D01*
X45665Y15789D01*
X45600Y15797D01*
X45497Y15784D01*
X45401Y15744D01*
X45319Y15681D01*
X45256Y15599D01*
X45216Y15503D01*
X45203Y15400D01*
X45216Y15297D01*
X45256Y15201D01*
X45319Y15119D01*
X45401Y15056D01*
X45497Y15016D01*
X45600Y15003D01*
X45703Y15016D01*
X45799Y15056D01*
X45881Y15119D01*
X45944Y15201D01*
X45984Y15297D01*
X45997Y15400D01*
X45984Y15503D01*
X45968Y15541D01*
X45989Y15562D01*
X45989Y15562D01*
X46024Y15614D01*
X46036Y15675D01*
Y16510D01*
X47215D01*
Y16242D01*
X46741Y15768D01*
X46703Y15784D01*
X46600Y15797D01*
X46497Y15784D01*
X46401Y15744D01*
X46319Y15681D01*
X46256Y15599D01*
X46216Y15503D01*
X46203Y15400D01*
X46216Y15297D01*
X46256Y15201D01*
X46319Y15119D01*
X46401Y15056D01*
X46497Y15016D01*
X46600Y15003D01*
X46703Y15016D01*
X46799Y15056D01*
X46881Y15119D01*
X46944Y15201D01*
X46984Y15297D01*
X46997Y15400D01*
X46984Y15503D01*
X46968Y15541D01*
X47160Y15733D01*
X47206Y15714D01*
Y15006D01*
X47359D01*
Y14711D01*
X47319Y14681D01*
X47256Y14599D01*
X47216Y14503D01*
X47203Y14400D01*
X47216Y14297D01*
X47256Y14201D01*
X47319Y14119D01*
X47359Y14089D01*
Y12941D01*
X46306D01*
X46214Y12923D01*
X46136Y12870D01*
X45827Y12561D01*
X45781Y12581D01*
Y12902D01*
X45258D01*
Y12606D01*
Y12309D01*
X45509D01*
X45528Y12262D01*
X45241Y11976D01*
X44657D01*
Y11636D01*
X44300D01*
X43978Y11958D01*
X43999Y12008D01*
X44200D01*
Y12255D01*
X43963D01*
Y12044D01*
X43913Y12023D01*
X43759Y12177D01*
X43704Y12214D01*
Y12335D01*
X42996D01*
Y11678D01*
X43039D01*
X43063Y11637D01*
Y11391D01*
X43350D01*
X43637D01*
Y11552D01*
X43683Y11571D01*
X43984Y11270D01*
X43984Y11093D01*
X43963Y11052D01*
X43963Y11028D01*
Y10805D01*
X44537D01*
X44537Y11052D01*
X44516Y11093D01*
X44516Y11119D01*
X44551Y11154D01*
X44904D01*
X44996Y11173D01*
X45074Y11225D01*
X45273Y11424D01*
X45759D01*
Y11813D01*
X46406Y12459D01*
X46903D01*
X46941Y12428D01*
X46941Y12409D01*
Y10972D01*
X48043D01*
Y12409D01*
X48043Y12428D01*
X48080Y12459D01*
X48334D01*
Y12424D01*
X48866D01*
Y12976D01*
X48866D01*
Y13015D01*
X48866D01*
Y13566D01*
X48715D01*
Y15134D01*
X48820D01*
X48830Y15134D01*
X48870D01*
X48904Y15094D01*
Y15083D01*
X48923Y14991D01*
X48975Y14912D01*
X49514Y14374D01*
Y14163D01*
X49986D01*
Y14455D01*
X49991Y14478D01*
X49986Y14501D01*
Y14793D01*
X49776D01*
X49421Y15148D01*
Y15666D01*
X48880D01*
X48870Y15666D01*
X48830D01*
X48820Y15666D01*
X48279D01*
Y15134D01*
X48394D01*
Y13566D01*
X48334D01*
Y13451D01*
X48257D01*
X48220Y13506D01*
X48142Y13558D01*
X48050Y13577D01*
X47958Y13558D01*
X47891Y13514D01*
X47841Y13531D01*
Y14089D01*
X47881Y14119D01*
X47944Y14201D01*
X47984Y14297D01*
X47997Y14400D01*
X47984Y14503D01*
X47944Y14599D01*
X47881Y14681D01*
X47841Y14711D01*
Y15006D01*
X47994D01*
Y15794D01*
X47286D01*
X47267Y15840D01*
X47489Y16062D01*
X47524Y16114D01*
X47536Y16175D01*
Y16510D01*
X48098D01*
Y16489D01*
X48325D01*
Y16982D01*
Y17476D01*
X48098D01*
Y17455D01*
X48036D01*
Y17725D01*
X48024Y17786D01*
X47989Y17838D01*
X47989Y17838D01*
X47414Y18414D01*
X47361Y18448D01*
X47300Y18461D01*
X47300Y18461D01*
X45617D01*
X44464Y19613D01*
X44483Y19659D01*
X45041D01*
Y19659D01*
X45082D01*
Y19659D01*
X45763D01*
Y19659D01*
X45804D01*
Y19659D01*
X46485D01*
Y20341D01*
X46485D01*
Y20382D01*
X46485D01*
Y21063D01*
X46485D01*
Y21104D01*
X46485D01*
Y21785D01*
X45804D01*
Y21785D01*
X45763D01*
Y21785D01*
X45082D01*
Y21785D01*
X45041D01*
Y21785D01*
X44359D01*
Y21785D01*
X44311Y21788D01*
Y21933D01*
X45489Y23112D01*
X45489Y23112D01*
X45524Y23164D01*
X45531Y23203D01*
X47634D01*
Y22600D01*
X47653Y22508D01*
X47705Y22430D01*
X47783Y22377D01*
X47875Y22359D01*
X47967Y22377D01*
X48046Y22430D01*
X48098Y22508D01*
X48116Y22600D01*
Y23182D01*
X48325D01*
Y23675D01*
Y24169D01*
X48103D01*
Y24563D01*
X48245D01*
Y24850D01*
Y25137D01*
X47998D01*
Y25137D01*
X47996Y25134D01*
X47946Y25152D01*
Y27705D01*
X48347Y28106D01*
X48794D01*
Y28894D01*
X48006D01*
Y28447D01*
X47744Y28185D01*
X47707Y28218D01*
X47715Y28229D01*
X47762Y28291D01*
X47804Y28392D01*
X47812Y28450D01*
X47450D01*
Y28088D01*
X47508Y28096D01*
X47609Y28138D01*
X47671Y28185D01*
X47682Y28193D01*
X47715Y28156D01*
X47534Y27975D01*
X47482Y27897D01*
X47464Y27805D01*
Y25497D01*
X47418Y25478D01*
X47025Y25870D01*
X46947Y25923D01*
X46855Y25941D01*
X46666D01*
Y25976D01*
X46134D01*
Y25558D01*
X46088Y25539D01*
X45866Y25761D01*
Y25971D01*
X45740D01*
Y26084D01*
X45845D01*
X45856Y26084D01*
X45895D01*
X45906Y26084D01*
X46446D01*
Y26189D01*
X46707D01*
Y26114D01*
X47337D01*
Y26348D01*
X47337Y26350D01*
X47337Y26352D01*
Y26586D01*
X46707D01*
Y26511D01*
X46446D01*
Y26616D01*
X45906D01*
X45895Y26616D01*
X45856D01*
X45845Y26616D01*
X45304D01*
Y26084D01*
X45419D01*
Y25971D01*
X45334D01*
Y25936D01*
X44604D01*
X43641Y26900D01*
Y28189D01*
X43681Y28219D01*
X43744Y28301D01*
X43784Y28397D01*
X43797Y28500D01*
X43784Y28603D01*
X43744Y28699D01*
X43681Y28781D01*
X43599Y28844D01*
X43503Y28884D01*
X43400Y28897D01*
D02*
G37*
G36*
X25978Y24577D02*
X25880Y24564D01*
X25789Y24527D01*
X25711Y24467D01*
X25651Y24389D01*
X25613Y24298D01*
X25600Y24200D01*
X25613Y24102D01*
X25651Y24011D01*
X25711Y23933D01*
X25789Y23873D01*
X25880Y23836D01*
X25978Y23823D01*
X26075Y23836D01*
X26166Y23873D01*
X26244Y23933D01*
X26304Y24011D01*
X26342Y24102D01*
X26355Y24200D01*
X26342Y24298D01*
X26304Y24389D01*
X26244Y24467D01*
X26166Y24527D01*
X26075Y24564D01*
X25978Y24577D01*
D02*
G37*
G36*
X17478D02*
X17380Y24564D01*
X17289Y24527D01*
X17211Y24467D01*
X17151Y24389D01*
X17113Y24298D01*
X17100Y24200D01*
X17113Y24102D01*
X17151Y24011D01*
X17211Y23933D01*
X17289Y23873D01*
X17380Y23836D01*
X17478Y23823D01*
X17575Y23836D01*
X17666Y23873D01*
X17744Y23933D01*
X17804Y24011D01*
X17842Y24102D01*
X17855Y24200D01*
X17842Y24298D01*
X17804Y24389D01*
X17744Y24467D01*
X17666Y24527D01*
X17575Y24564D01*
X17478Y24577D01*
D02*
G37*
G36*
X13178D02*
X13080Y24564D01*
X12989Y24527D01*
X12911Y24467D01*
X12851Y24389D01*
X12813Y24298D01*
X12800Y24200D01*
X12813Y24102D01*
X12851Y24011D01*
X12911Y23933D01*
X12989Y23873D01*
X13080Y23836D01*
X13178Y23823D01*
X13275Y23836D01*
X13366Y23873D01*
X13444Y23933D01*
X13504Y24011D01*
X13542Y24102D01*
X13555Y24200D01*
X13542Y24298D01*
X13504Y24389D01*
X13444Y24467D01*
X13366Y24527D01*
X13275Y24564D01*
X13178Y24577D01*
D02*
G37*
G36*
X21728Y24527D02*
X21630Y24514D01*
X21539Y24477D01*
X21461Y24417D01*
X21401Y24339D01*
X21363Y24248D01*
X21350Y24150D01*
X21363Y24052D01*
X21401Y23961D01*
X21461Y23883D01*
X21539Y23823D01*
X21630Y23786D01*
X21728Y23773D01*
X21825Y23786D01*
X21916Y23823D01*
X21994Y23883D01*
X22054Y23961D01*
X22092Y24052D01*
X22105Y24150D01*
X22092Y24248D01*
X22054Y24339D01*
X21994Y24417D01*
X21916Y24477D01*
X21825Y24514D01*
X21728Y24527D01*
D02*
G37*
G36*
X48652Y24169D02*
X48425D01*
Y23725D01*
X48652D01*
Y24169D01*
D02*
G37*
G36*
Y23625D02*
X48425D01*
Y23182D01*
X48652D01*
Y23625D01*
D02*
G37*
G36*
X41975Y22856D02*
X41532D01*
Y22629D01*
X41975D01*
Y22856D01*
D02*
G37*
G36*
X41431D02*
X40988D01*
Y22629D01*
X41431D01*
Y22856D01*
D02*
G37*
G36*
X25978Y21577D02*
X25880Y21564D01*
X25789Y21527D01*
X25711Y21467D01*
X25651Y21389D01*
X25613Y21298D01*
X25600Y21200D01*
X25613Y21102D01*
X25651Y21011D01*
X25711Y20933D01*
X25789Y20873D01*
X25880Y20836D01*
X25978Y20823D01*
X26075Y20836D01*
X26166Y20873D01*
X26244Y20933D01*
X26304Y21011D01*
X26342Y21102D01*
X26355Y21200D01*
X26342Y21298D01*
X26304Y21389D01*
X26244Y21467D01*
X26166Y21527D01*
X26075Y21564D01*
X25978Y21577D01*
D02*
G37*
G36*
X17478D02*
X17380Y21564D01*
X17289Y21527D01*
X17211Y21467D01*
X17151Y21389D01*
X17113Y21298D01*
X17100Y21200D01*
X17113Y21102D01*
X17151Y21011D01*
X17211Y20933D01*
X17289Y20873D01*
X17380Y20836D01*
X17478Y20823D01*
X17575Y20836D01*
X17666Y20873D01*
X17744Y20933D01*
X17804Y21011D01*
X17842Y21102D01*
X17855Y21200D01*
X17842Y21298D01*
X17804Y21389D01*
X17744Y21467D01*
X17666Y21527D01*
X17575Y21564D01*
X17478Y21577D01*
D02*
G37*
G36*
X13178D02*
X13080Y21564D01*
X12989Y21527D01*
X12911Y21467D01*
X12851Y21389D01*
X12813Y21298D01*
X12800Y21200D01*
X12813Y21102D01*
X12851Y21011D01*
X12911Y20933D01*
X12989Y20873D01*
X13080Y20836D01*
X13178Y20823D01*
X13275Y20836D01*
X13366Y20873D01*
X13444Y20933D01*
X13504Y21011D01*
X13542Y21102D01*
X13555Y21200D01*
X13542Y21298D01*
X13504Y21389D01*
X13444Y21467D01*
X13366Y21527D01*
X13275Y21564D01*
X13178Y21577D01*
D02*
G37*
G36*
X21728Y21527D02*
X21630Y21514D01*
X21539Y21477D01*
X21461Y21417D01*
X21401Y21339D01*
X21363Y21248D01*
X21350Y21150D01*
X21363Y21052D01*
X21401Y20961D01*
X21461Y20883D01*
X21539Y20823D01*
X21630Y20786D01*
X21728Y20773D01*
X21825Y20786D01*
X21916Y20823D01*
X21994Y20883D01*
X22054Y20961D01*
X22092Y21052D01*
X22105Y21150D01*
X22092Y21248D01*
X22054Y21339D01*
X21994Y21417D01*
X21916Y21477D01*
X21825Y21514D01*
X21728Y21527D01*
D02*
G37*
G36*
X39800Y21497D02*
X39697Y21484D01*
X39601Y21444D01*
X39519Y21381D01*
X39456Y21299D01*
X39416Y21203D01*
X39403Y21100D01*
X39416Y20997D01*
X39456Y20901D01*
X39519Y20819D01*
X39601Y20756D01*
X39697Y20716D01*
X39800Y20703D01*
X39903Y20716D01*
X39999Y20756D01*
X40081Y20819D01*
X40144Y20901D01*
X40184Y20997D01*
X40197Y21100D01*
X40184Y21203D01*
X40144Y21299D01*
X40081Y21381D01*
X39999Y21444D01*
X39903Y21484D01*
X39800Y21497D01*
D02*
G37*
G36*
Y20497D02*
X39697Y20484D01*
X39601Y20444D01*
X39519Y20381D01*
X39456Y20299D01*
X39416Y20203D01*
X39403Y20100D01*
X39416Y19997D01*
X39456Y19901D01*
X39519Y19819D01*
X39601Y19756D01*
X39697Y19716D01*
X39800Y19703D01*
X39903Y19716D01*
X39999Y19756D01*
X40081Y19819D01*
X40144Y19901D01*
X40184Y19997D01*
X40197Y20100D01*
X40184Y20203D01*
X40144Y20299D01*
X40081Y20381D01*
X39999Y20444D01*
X39903Y20484D01*
X39800Y20497D01*
D02*
G37*
G36*
Y19497D02*
X39697Y19484D01*
X39601Y19444D01*
X39519Y19381D01*
X39456Y19299D01*
X39416Y19203D01*
X39403Y19100D01*
X39416Y18997D01*
X39456Y18901D01*
X39519Y18819D01*
X39601Y18756D01*
X39697Y18716D01*
X39800Y18703D01*
X39903Y18716D01*
X39999Y18756D01*
X40081Y18819D01*
X40144Y18901D01*
X40184Y18997D01*
X40197Y19100D01*
X40184Y19203D01*
X40144Y19299D01*
X40081Y19381D01*
X39999Y19444D01*
X39903Y19484D01*
X39800Y19497D01*
D02*
G37*
G36*
Y18497D02*
X39697Y18484D01*
X39601Y18444D01*
X39519Y18381D01*
X39456Y18299D01*
X39416Y18203D01*
X39403Y18100D01*
X39416Y17997D01*
X39456Y17901D01*
X39519Y17819D01*
X39601Y17756D01*
X39697Y17716D01*
X39800Y17703D01*
X39903Y17716D01*
X39999Y17756D01*
X40081Y17819D01*
X40144Y17901D01*
X40184Y17997D01*
X40197Y18100D01*
X40184Y18203D01*
X40144Y18299D01*
X40081Y18381D01*
X39999Y18444D01*
X39903Y18484D01*
X39800Y18497D01*
D02*
G37*
G36*
X48652Y17476D02*
X48425D01*
Y17032D01*
X48652D01*
Y17476D01*
D02*
G37*
G36*
X25978Y17577D02*
X25880Y17564D01*
X25789Y17527D01*
X25711Y17467D01*
X25651Y17389D01*
X25613Y17298D01*
X25600Y17200D01*
X25601Y17192D01*
X24139Y15730D01*
X24087Y15652D01*
X24069Y15559D01*
Y14516D01*
X24034D01*
Y13984D01*
X24069D01*
Y13884D01*
X24087Y13792D01*
X24139Y13714D01*
X24364Y13489D01*
Y13338D01*
X24836D01*
Y13570D01*
X24841Y13594D01*
X24836Y13617D01*
Y13850D01*
X24685D01*
X24622Y13913D01*
X24624Y13974D01*
X24635Y13984D01*
X25176D01*
Y14009D01*
X25271D01*
Y13946D01*
X25929D01*
Y14654D01*
X25271D01*
Y14491D01*
X25176D01*
Y14516D01*
X24635D01*
X24624Y14516D01*
X24585D01*
X24550Y14556D01*
Y15460D01*
X25921Y16830D01*
X25978Y16823D01*
X26075Y16836D01*
X26166Y16873D01*
X26244Y16933D01*
X26304Y17011D01*
X26342Y17102D01*
X26355Y17200D01*
X26342Y17298D01*
X26304Y17389D01*
X26244Y17467D01*
X26166Y17527D01*
X26075Y17564D01*
X25978Y17577D01*
D02*
G37*
G36*
X17478D02*
X17380Y17564D01*
X17289Y17527D01*
X17211Y17467D01*
X17151Y17389D01*
X17113Y17298D01*
X17107Y17247D01*
X15734Y15875D01*
X15682Y15797D01*
X15664Y15705D01*
Y14566D01*
X15629D01*
Y14034D01*
X15665D01*
X15682Y13947D01*
X15734Y13869D01*
X16014Y13589D01*
Y13438D01*
X16486D01*
Y13670D01*
X16491Y13694D01*
X16486Y13717D01*
Y13950D01*
X16335D01*
X16296Y13988D01*
X16315Y14034D01*
X16771D01*
Y14059D01*
X16871D01*
Y13896D01*
X17529D01*
Y14604D01*
X16871D01*
Y14541D01*
X16771D01*
Y14566D01*
X16220D01*
Y14566D01*
X16196D01*
X16146Y14601D01*
Y15605D01*
X17377Y16837D01*
X17380Y16836D01*
X17478Y16823D01*
X17575Y16836D01*
X17666Y16873D01*
X17744Y16933D01*
X17804Y17011D01*
X17842Y17102D01*
X17855Y17200D01*
X17842Y17298D01*
X17804Y17389D01*
X17744Y17467D01*
X17666Y17527D01*
X17575Y17564D01*
X17478Y17577D01*
D02*
G37*
G36*
X13178D02*
X13080Y17564D01*
X12989Y17527D01*
X12911Y17467D01*
X12851Y17389D01*
X12813Y17298D01*
X12800Y17200D01*
X12805Y17168D01*
X11534Y15897D01*
X11482Y15819D01*
X11464Y15727D01*
Y14616D01*
X11429D01*
Y14084D01*
X11465D01*
X11482Y13997D01*
X11534Y13919D01*
X11814Y13639D01*
Y13488D01*
X12286D01*
Y13720D01*
X12291Y13744D01*
X12286Y13767D01*
Y14000D01*
X12135D01*
X12096Y14038D01*
X12115Y14084D01*
X12571D01*
Y14109D01*
X12621D01*
Y13946D01*
X13279D01*
Y14654D01*
X12621D01*
Y14591D01*
X12571D01*
Y14616D01*
X12020D01*
Y14616D01*
X11996D01*
X11946Y14651D01*
Y15627D01*
X13145Y16827D01*
X13178Y16823D01*
X13275Y16836D01*
X13366Y16873D01*
X13444Y16933D01*
X13504Y17011D01*
X13542Y17102D01*
X13555Y17200D01*
X13542Y17298D01*
X13504Y17389D01*
X13444Y17467D01*
X13366Y17527D01*
X13275Y17564D01*
X13178Y17577D01*
D02*
G37*
G36*
X21728Y17527D02*
X21630Y17514D01*
X21539Y17477D01*
X21461Y17417D01*
X21401Y17339D01*
X21368Y17258D01*
X19934Y15825D01*
X19882Y15747D01*
X19864Y15655D01*
Y14516D01*
X19829D01*
Y13984D01*
X19866D01*
X19882Y13903D01*
X19934Y13825D01*
X20214Y13546D01*
Y13394D01*
X20686D01*
Y13627D01*
X20691Y13650D01*
X20686Y13673D01*
Y13906D01*
X20536D01*
X20508Y13940D01*
X20527Y13984D01*
X20971D01*
Y14009D01*
X21021D01*
Y13946D01*
X21679D01*
Y14654D01*
X21021D01*
Y14491D01*
X20971D01*
Y14516D01*
X20420D01*
Y14516D01*
X20396D01*
X20346Y14551D01*
Y15555D01*
X21592Y16801D01*
X21630Y16786D01*
X21728Y16773D01*
X21825Y16786D01*
X21916Y16823D01*
X21994Y16883D01*
X22054Y16961D01*
X22092Y17052D01*
X22105Y17150D01*
X22092Y17248D01*
X22054Y17339D01*
X21994Y17417D01*
X21916Y17477D01*
X21825Y17514D01*
X21728Y17527D01*
D02*
G37*
G36*
X48652Y16932D02*
X48425D01*
Y16489D01*
X48652D01*
Y16932D01*
D02*
G37*
G36*
X13228Y16592D02*
Y16250D01*
X13570D01*
X13563Y16303D01*
X13523Y16399D01*
X13459Y16482D01*
X13377Y16545D01*
X13281Y16585D01*
X13228Y16592D01*
D02*
G37*
G36*
X13128D02*
X13074Y16585D01*
X12978Y16545D01*
X12896Y16482D01*
X12832Y16399D01*
X12792Y16303D01*
X12785Y16250D01*
X13128D01*
Y16592D01*
D02*
G37*
G36*
X26028D02*
Y16250D01*
X26370D01*
X26363Y16303D01*
X26323Y16399D01*
X26259Y16482D01*
X26177Y16545D01*
X26081Y16585D01*
X26028Y16592D01*
D02*
G37*
G36*
X17528D02*
Y16250D01*
X17870D01*
X17863Y16303D01*
X17823Y16399D01*
X17759Y16482D01*
X17677Y16545D01*
X17581Y16585D01*
X17528Y16592D01*
D02*
G37*
G36*
X25928D02*
X25874Y16585D01*
X25778Y16545D01*
X25696Y16482D01*
X25632Y16399D01*
X25592Y16303D01*
X25585Y16250D01*
X25928D01*
Y16592D01*
D02*
G37*
G36*
X17428D02*
X17374Y16585D01*
X17278Y16545D01*
X17196Y16482D01*
X17132Y16399D01*
X17092Y16303D01*
X17085Y16250D01*
X17428D01*
Y16592D01*
D02*
G37*
G36*
X21778Y16542D02*
Y16200D01*
X22120D01*
X22113Y16253D01*
X22073Y16349D01*
X22009Y16432D01*
X21927Y16495D01*
X21831Y16535D01*
X21778Y16542D01*
D02*
G37*
G36*
X21678D02*
X21624Y16535D01*
X21528Y16495D01*
X21446Y16432D01*
X21382Y16349D01*
X21342Y16253D01*
X21335Y16200D01*
X21678D01*
Y16542D01*
D02*
G37*
G36*
X26370Y16150D02*
X26028D01*
Y15808D01*
X26081Y15815D01*
X26177Y15855D01*
X26259Y15918D01*
X26323Y16001D01*
X26363Y16097D01*
X26370Y16150D01*
D02*
G37*
G36*
X17870D02*
X17528D01*
Y15808D01*
X17581Y15815D01*
X17677Y15855D01*
X17759Y15918D01*
X17823Y16001D01*
X17863Y16097D01*
X17870Y16150D01*
D02*
G37*
G36*
X13570Y16150D02*
X13228D01*
Y15808D01*
X13281Y15815D01*
X13377Y15855D01*
X13459Y15918D01*
X13523Y16001D01*
X13563Y16097D01*
X13570Y16150D01*
D02*
G37*
G36*
X13128D02*
X12785D01*
X12792Y16097D01*
X12832Y16001D01*
X12896Y15918D01*
X12978Y15855D01*
X13074Y15815D01*
X13128Y15808D01*
Y16150D01*
D02*
G37*
G36*
X25928Y16150D02*
X25585D01*
X25592Y16097D01*
X25632Y16001D01*
X25696Y15918D01*
X25778Y15855D01*
X25874Y15815D01*
X25928Y15808D01*
Y16150D01*
D02*
G37*
G36*
X17428D02*
X17085D01*
X17092Y16097D01*
X17132Y16001D01*
X17196Y15918D01*
X17278Y15855D01*
X17374Y15815D01*
X17428Y15808D01*
Y16150D01*
D02*
G37*
G36*
X22120Y16100D02*
X21778D01*
Y15758D01*
X21831Y15765D01*
X21927Y15805D01*
X22009Y15868D01*
X22073Y15951D01*
X22113Y16047D01*
X22120Y16100D01*
D02*
G37*
G36*
X21678D02*
X21335D01*
X21342Y16047D01*
X21382Y15951D01*
X21446Y15868D01*
X21528Y15805D01*
X21624Y15765D01*
X21678Y15758D01*
Y16100D01*
D02*
G37*
G36*
X42291Y15837D02*
Y15600D01*
X42537D01*
Y15837D01*
X42291D01*
D02*
G37*
G36*
X44650Y15812D02*
Y15450D01*
X45012D01*
X45004Y15508D01*
X44962Y15609D01*
X44896Y15696D01*
X44809Y15762D01*
X44708Y15804D01*
X44650Y15812D01*
D02*
G37*
G36*
X44550D02*
X44492Y15804D01*
X44391Y15762D01*
X44304Y15696D01*
X44238Y15609D01*
X44196Y15508D01*
X44188Y15450D01*
X44550D01*
Y15812D01*
D02*
G37*
G36*
X42537Y15500D02*
X42291D01*
Y15263D01*
X42537D01*
Y15500D01*
D02*
G37*
G36*
X40329Y16054D02*
X39671D01*
Y15346D01*
X40306D01*
X40329Y15346D01*
X40356Y15308D01*
Y14569D01*
X40850D01*
X41344D01*
Y15247D01*
X41374Y15284D01*
X41394Y15284D01*
X41903Y15284D01*
X41944Y15263D01*
X41967Y15263D01*
X42191D01*
Y15550D01*
Y15837D01*
X41944Y15837D01*
X41903Y15816D01*
X41725Y15816D01*
X41670Y15870D01*
X41592Y15923D01*
X41500Y15941D01*
X40329D01*
Y16054D01*
D02*
G37*
G36*
X43600Y15797D02*
X43497Y15784D01*
X43401Y15744D01*
X43319Y15681D01*
X43256Y15599D01*
X43216Y15503D01*
X43203Y15400D01*
X43216Y15297D01*
X43256Y15201D01*
X43319Y15119D01*
X43401Y15056D01*
X43497Y15016D01*
X43600Y15003D01*
X43703Y15016D01*
X43799Y15056D01*
X43881Y15119D01*
X43944Y15201D01*
X43984Y15297D01*
X43997Y15400D01*
X43984Y15503D01*
X43944Y15599D01*
X43881Y15681D01*
X43799Y15744D01*
X43703Y15784D01*
X43600Y15797D01*
D02*
G37*
G36*
X45012Y15350D02*
X44650D01*
Y14988D01*
X44708Y14996D01*
X44809Y15038D01*
X44896Y15104D01*
X44962Y15191D01*
X45004Y15292D01*
X45012Y15350D01*
D02*
G37*
G36*
X44550D02*
X44188D01*
X44196Y15292D01*
X44238Y15191D01*
X44304Y15104D01*
X44391Y15038D01*
X44492Y14996D01*
X44550Y14988D01*
Y15350D01*
D02*
G37*
G36*
X43650Y14812D02*
Y14450D01*
X44012D01*
X44004Y14508D01*
X43962Y14609D01*
X43896Y14696D01*
X43809Y14762D01*
X43708Y14804D01*
X43650Y14812D01*
D02*
G37*
G36*
X43550D02*
X43492Y14804D01*
X43391Y14762D01*
X43304Y14696D01*
X43238Y14609D01*
X43196Y14508D01*
X43188Y14450D01*
X43550D01*
Y14812D01*
D02*
G37*
G36*
X26850Y14675D02*
X26550D01*
Y14350D01*
X26850D01*
Y14675D01*
D02*
G37*
G36*
X26450D02*
X26150D01*
Y14350D01*
X26450D01*
Y14675D01*
D02*
G37*
G36*
X22600D02*
X22300D01*
Y14350D01*
X22600D01*
Y14675D01*
D02*
G37*
G36*
X22200D02*
X21900D01*
Y14350D01*
X22200D01*
Y14675D01*
D02*
G37*
G36*
X14200D02*
X13900D01*
Y14350D01*
X14200D01*
Y14675D01*
D02*
G37*
G36*
X13800D02*
X13500D01*
Y14350D01*
X13800D01*
Y14675D01*
D02*
G37*
G36*
X18450Y14625D02*
X18150D01*
Y14300D01*
X18450D01*
Y14625D01*
D02*
G37*
G36*
X18050D02*
X17750D01*
Y14300D01*
X18050D01*
Y14625D01*
D02*
G37*
G36*
X46600Y14797D02*
X46497Y14784D01*
X46401Y14744D01*
X46319Y14681D01*
X46256Y14599D01*
X46216Y14503D01*
X46203Y14400D01*
X46216Y14297D01*
X46256Y14201D01*
X46319Y14119D01*
X46401Y14056D01*
X46497Y14016D01*
X46600Y14003D01*
X46703Y14016D01*
X46799Y14056D01*
X46881Y14119D01*
X46944Y14201D01*
X46984Y14297D01*
X46997Y14400D01*
X46984Y14503D01*
X46944Y14599D01*
X46881Y14681D01*
X46799Y14744D01*
X46703Y14784D01*
X46600Y14797D01*
D02*
G37*
G36*
X45600D02*
X45497Y14784D01*
X45401Y14744D01*
X45319Y14681D01*
X45256Y14599D01*
X45216Y14503D01*
X45203Y14400D01*
X45216Y14297D01*
X45256Y14201D01*
X45319Y14119D01*
X45401Y14056D01*
X45497Y14016D01*
X45600Y14003D01*
X45703Y14016D01*
X45799Y14056D01*
X45881Y14119D01*
X45944Y14201D01*
X45984Y14297D01*
X45997Y14400D01*
X45984Y14503D01*
X45944Y14599D01*
X45881Y14681D01*
X45799Y14744D01*
X45703Y14784D01*
X45600Y14797D01*
D02*
G37*
G36*
X44600D02*
X44497Y14784D01*
X44401Y14744D01*
X44319Y14681D01*
X44256Y14599D01*
X44216Y14503D01*
X44203Y14400D01*
X44216Y14297D01*
X44256Y14201D01*
X44319Y14119D01*
X44401Y14056D01*
X44497Y14016D01*
X44600Y14003D01*
X44703Y14016D01*
X44799Y14056D01*
X44881Y14119D01*
X44944Y14201D01*
X44984Y14297D01*
X44997Y14400D01*
X44984Y14503D01*
X44944Y14599D01*
X44881Y14681D01*
X44799Y14744D01*
X44703Y14784D01*
X44600Y14797D01*
D02*
G37*
G36*
X44012Y14350D02*
X43650D01*
Y13988D01*
X43708Y13996D01*
X43809Y14038D01*
X43896Y14104D01*
X43962Y14191D01*
X44004Y14292D01*
X44012Y14350D01*
D02*
G37*
G36*
X43550D02*
X43188D01*
X43196Y14292D01*
X43238Y14191D01*
X43304Y14104D01*
X43391Y14038D01*
X43492Y13996D01*
X43550Y13988D01*
Y14350D01*
D02*
G37*
G36*
X26850Y14250D02*
X26550D01*
Y13925D01*
X26850D01*
Y14250D01*
D02*
G37*
G36*
X26450D02*
X26150D01*
Y13925D01*
X26450D01*
Y14250D01*
D02*
G37*
G36*
X22600D02*
X22300D01*
Y13925D01*
X22600D01*
Y14250D01*
D02*
G37*
G36*
X22200D02*
X21900D01*
Y13925D01*
X22200D01*
Y14250D01*
D02*
G37*
G36*
X14200D02*
X13900D01*
Y13925D01*
X14200D01*
Y14250D01*
D02*
G37*
G36*
X13800D02*
X13500D01*
Y13925D01*
X13800D01*
Y14250D01*
D02*
G37*
G36*
X18450Y14200D02*
X18150D01*
Y13875D01*
X18450D01*
Y14200D01*
D02*
G37*
G36*
X18050D02*
X17750D01*
Y13875D01*
X18050D01*
Y14200D01*
D02*
G37*
G36*
X41344Y14469D02*
X40900D01*
Y13612D01*
X41344D01*
Y14469D01*
D02*
G37*
G36*
X40800D02*
X40356D01*
Y13612D01*
X40800D01*
Y14469D01*
D02*
G37*
G36*
X13913Y13558D02*
X13087D01*
Y13197D01*
X12660D01*
Y13212D01*
X12188D01*
Y12980D01*
X12183Y12956D01*
Y12266D01*
X12130D01*
X12120Y12266D01*
X12080D01*
X12070Y12266D01*
X11917D01*
Y12956D01*
X11912Y12980D01*
Y13212D01*
X11440D01*
Y12980D01*
X11435Y12956D01*
Y12129D01*
X11453Y12037D01*
X11506Y11958D01*
X11529Y11935D01*
Y11734D01*
X11564D01*
Y11566D01*
X11529D01*
Y11110D01*
X11479Y11102D01*
X11458Y11173D01*
X11392Y11296D01*
X11304Y11404D01*
X11196Y11492D01*
X11073Y11558D01*
X10939Y11598D01*
X10800Y11612D01*
X10661Y11598D01*
X10527Y11558D01*
X10404Y11492D01*
X10296Y11404D01*
X10208Y11296D01*
X10142Y11173D01*
X10102Y11039D01*
X10088Y10900D01*
X10102Y10761D01*
X10142Y10627D01*
X10208Y10504D01*
X10296Y10396D01*
X10404Y10308D01*
X10527Y10242D01*
X10661Y10202D01*
X10800Y10188D01*
X10939Y10202D01*
X11073Y10242D01*
X11196Y10308D01*
X11304Y10396D01*
X11392Y10504D01*
X11458Y10627D01*
X11498Y10761D01*
X11512Y10900D01*
X11503Y10995D01*
X11549Y11034D01*
X12070D01*
X12080Y11034D01*
X12120D01*
X12159Y10996D01*
Y10700D01*
X12177Y10608D01*
X12230Y10530D01*
X12308Y10477D01*
X12400Y10459D01*
X12492Y10477D01*
X12570Y10530D01*
X12623Y10608D01*
X12641Y10700D01*
Y11034D01*
X12671D01*
Y11566D01*
X12130D01*
X12120Y11566D01*
X12080D01*
X12046Y11606D01*
Y11700D01*
X12080Y11734D01*
X12120D01*
X12130Y11734D01*
X12671D01*
Y12266D01*
X12665D01*
Y12715D01*
X13087D01*
Y12417D01*
X13913D01*
Y13558D01*
D02*
G37*
G36*
X45158Y12902D02*
X44636D01*
Y12656D01*
X45158D01*
Y12902D01*
D02*
G37*
G36*
X39429Y16054D02*
X38771D01*
Y15346D01*
X38859D01*
Y12844D01*
X38877Y12752D01*
X38930Y12673D01*
X40378Y11226D01*
Y10991D01*
X28649D01*
X28227Y11413D01*
X28341Y11527D01*
X28374Y11523D01*
X28471Y11536D01*
X28562Y11573D01*
X28640Y11633D01*
X28700Y11711D01*
X28738Y11802D01*
X28751Y11900D01*
X28738Y11998D01*
X28700Y12089D01*
X28640Y12167D01*
X28562Y12227D01*
X28471Y12264D01*
X28374Y12277D01*
X28276Y12264D01*
X28185Y12227D01*
X28107Y12167D01*
X28047Y12089D01*
X28009Y11998D01*
X27996Y11900D01*
X28001Y11868D01*
X27786Y11653D01*
X26513D01*
Y11983D01*
X25687D01*
Y11027D01*
X25200Y10541D01*
X25145D01*
X25128Y10591D01*
X25173Y10658D01*
X25191Y10750D01*
Y11034D01*
X25226D01*
Y11566D01*
X24685D01*
X24674Y11566D01*
X24635D01*
X24600Y11606D01*
Y11700D01*
X24635Y11734D01*
X24674D01*
X24685Y11734D01*
X25226D01*
Y12266D01*
X25215D01*
Y12565D01*
X25687D01*
Y12417D01*
X26513D01*
Y13558D01*
X25687D01*
Y13047D01*
X25210D01*
Y13062D01*
X24738D01*
Y12830D01*
X24733Y12806D01*
Y12301D01*
X24699Y12267D01*
X24683Y12266D01*
X24674Y12266D01*
X24635D01*
X24624Y12266D01*
X24467D01*
Y12806D01*
X24462Y12830D01*
Y13062D01*
X23990D01*
Y12830D01*
X23985Y12806D01*
Y12133D01*
X24003Y12041D01*
X24056Y11963D01*
X24084Y11935D01*
Y11734D01*
X24119D01*
Y11566D01*
X24084D01*
Y11034D01*
X24624D01*
X24635Y11034D01*
X24674D01*
X24709Y10994D01*
Y10750D01*
X24727Y10658D01*
X24772Y10591D01*
X24755Y10541D01*
X22191D01*
Y10842D01*
X22363D01*
Y11983D01*
X21537D01*
Y10842D01*
X21709D01*
Y10541D01*
X20981D01*
X20957Y10585D01*
X20973Y10608D01*
X20991Y10700D01*
X20981Y10747D01*
Y10984D01*
X21016D01*
Y11516D01*
X20476D01*
X20465Y11516D01*
X20426D01*
X20396Y11558D01*
Y11650D01*
X20430Y11684D01*
X20470D01*
X20480Y11684D01*
X21021D01*
Y11898D01*
X21047Y11937D01*
X21065Y12029D01*
Y12622D01*
X21537D01*
Y12417D01*
X22363D01*
Y13558D01*
X21537D01*
Y13103D01*
X21060D01*
Y13118D01*
X20588D01*
Y12886D01*
X20583Y12863D01*
Y12216D01*
X20480D01*
X20470Y12216D01*
X20430D01*
X20420Y12216D01*
X20317D01*
Y12863D01*
X20312Y12886D01*
Y13118D01*
X19840D01*
Y12886D01*
X19835Y12863D01*
Y12029D01*
X19853Y11937D01*
X19879Y11898D01*
Y11684D01*
X19914D01*
Y11516D01*
X19874D01*
Y10984D01*
X20415D01*
X20426Y10984D01*
X20465D01*
X20500Y10944D01*
Y10709D01*
X20518Y10617D01*
X20540Y10585D01*
X20516Y10541D01*
X17991D01*
Y10829D01*
X18163D01*
Y11971D01*
X17337D01*
Y10829D01*
X17509D01*
Y10541D01*
X16831D01*
X16807Y10585D01*
X16823Y10608D01*
X16841Y10700D01*
X16836Y10724D01*
Y10984D01*
X16871D01*
Y11516D01*
X16330D01*
X16320Y11516D01*
X16280D01*
X16246Y11556D01*
Y11650D01*
X16280Y11684D01*
X16320D01*
X16330Y11684D01*
X16871D01*
Y12216D01*
X16865D01*
Y12734D01*
X17337D01*
Y12404D01*
X18163D01*
Y13546D01*
X17337D01*
Y13216D01*
X16693D01*
X16600Y13197D01*
X16548Y13162D01*
X16388D01*
Y12930D01*
X16383Y12906D01*
Y12216D01*
X16330D01*
X16320Y12216D01*
X16280D01*
X16270Y12216D01*
X16117D01*
Y12906D01*
X16112Y12930D01*
Y13162D01*
X15640D01*
Y12930D01*
X15635Y12906D01*
Y12079D01*
X15653Y11987D01*
X15706Y11908D01*
X15729Y11885D01*
Y11684D01*
X15764D01*
Y11516D01*
X15729D01*
Y10984D01*
X16270D01*
X16280Y10984D01*
X16320D01*
X16354Y10944D01*
Y10705D01*
X16373Y10613D01*
X16391Y10585D01*
X16368Y10541D01*
X14300D01*
X13913Y10927D01*
Y11983D01*
X13087D01*
Y10842D01*
X13322D01*
X13330Y10830D01*
X14030Y10130D01*
X14108Y10077D01*
X14200Y10059D01*
X25300D01*
X25392Y10077D01*
X25470Y10130D01*
X26182Y10842D01*
X26513D01*
Y11172D01*
X27786D01*
X28379Y10580D01*
X28457Y10527D01*
X28549Y10509D01*
X40378D01*
Y10208D01*
X41322D01*
Y10509D01*
X43084D01*
Y10474D01*
X43235D01*
X43630Y10080D01*
X43708Y10027D01*
X43800Y10009D01*
X44664D01*
X44756Y10027D01*
X44834Y10080D01*
X45273Y10519D01*
X45759D01*
Y11070D01*
X44657D01*
Y10584D01*
X44587Y10514D01*
X44537Y10535D01*
Y10705D01*
X43963D01*
Y10491D01*
X43900D01*
X43616Y10775D01*
X43616Y11003D01*
X43637Y11044D01*
X43637Y11067D01*
Y11291D01*
X43350D01*
X43063D01*
X43063Y11044D01*
X43064Y11041D01*
X43034Y10991D01*
X41322D01*
Y11980D01*
X40378D01*
Y11972D01*
X40331Y11953D01*
X39341Y12943D01*
Y15346D01*
X39429D01*
Y16054D01*
D02*
G37*
G36*
X43704Y13235D02*
X42996D01*
Y12578D01*
X43704D01*
Y12665D01*
X43940D01*
X43970Y12615D01*
X43963Y12602D01*
X43963Y12578D01*
Y12355D01*
X44250D01*
X44537D01*
X44537Y12602D01*
X44516Y12643D01*
X44516Y12652D01*
Y13171D01*
X43984D01*
Y13147D01*
X43704D01*
Y13235D01*
D02*
G37*
G36*
X45158Y12556D02*
X44636D01*
Y12309D01*
X45158D01*
Y12556D01*
D02*
G37*
G36*
X44537Y12255D02*
X44300D01*
Y12008D01*
X44537D01*
Y12255D01*
D02*
G37*
G36*
X37400Y12292D02*
Y11950D01*
X37742D01*
X37735Y12003D01*
X37695Y12099D01*
X37632Y12182D01*
X37549Y12245D01*
X37453Y12285D01*
X37400Y12292D01*
D02*
G37*
G36*
X37300D02*
X37247Y12285D01*
X37151Y12245D01*
X37068Y12182D01*
X37005Y12099D01*
X36965Y12003D01*
X36958Y11950D01*
X37300D01*
Y12292D01*
D02*
G37*
G36*
X50007Y12058D02*
X49800D01*
Y11772D01*
X50007D01*
Y12058D01*
D02*
G37*
G36*
X49700D02*
X49493D01*
Y11772D01*
X49700D01*
Y12058D01*
D02*
G37*
G36*
X37742Y11850D02*
X37400D01*
Y11508D01*
X37453Y11515D01*
X37549Y11555D01*
X37632Y11618D01*
X37695Y11701D01*
X37735Y11797D01*
X37742Y11850D01*
D02*
G37*
G36*
X37300D02*
X36958D01*
X36965Y11797D01*
X37005Y11701D01*
X37068Y11618D01*
X37151Y11555D01*
X37247Y11515D01*
X37300Y11508D01*
Y11850D01*
D02*
G37*
G36*
X49700Y11672D02*
X49493D01*
Y11512D01*
X49470Y11501D01*
X49443Y11494D01*
X49323Y11558D01*
X49189Y11598D01*
X49050Y11612D01*
X48911Y11598D01*
X48777Y11558D01*
X48654Y11492D01*
X48546Y11404D01*
X48458Y11296D01*
X48392Y11173D01*
X48352Y11039D01*
X48338Y10900D01*
X48352Y10761D01*
X48392Y10627D01*
X48458Y10504D01*
X48546Y10396D01*
X48654Y10308D01*
X48777Y10242D01*
X48911Y10202D01*
X49050Y10188D01*
X49189Y10202D01*
X49323Y10242D01*
X49446Y10308D01*
X49554Y10396D01*
X49642Y10504D01*
X49708Y10627D01*
X49748Y10761D01*
X49762Y10900D01*
X49748Y11039D01*
X49708Y11173D01*
X49642Y11296D01*
X49605Y11341D01*
X49627Y11386D01*
X49700D01*
Y11672D01*
D02*
G37*
G36*
X50007D02*
X49800D01*
Y11386D01*
X50007D01*
Y11672D01*
D02*
G37*
%LPD*%
G36*
X47429Y24785D02*
Y24584D01*
X47621D01*
Y24281D01*
X47571Y24266D01*
X47545Y24305D01*
X46666Y25184D01*
Y25374D01*
X46666Y25385D01*
X46666D01*
Y25409D01*
X46701Y25459D01*
X46755D01*
X47429Y24785D01*
D02*
G37*
G36*
X44579Y23157D02*
X43536Y22114D01*
X43502Y22061D01*
X43489Y22000D01*
X43489Y22000D01*
Y21260D01*
X43480Y21254D01*
X43455Y21217D01*
X43395D01*
X43370Y21254D01*
X43361Y21260D01*
Y22083D01*
X44480Y23203D01*
X44560D01*
X44579Y23157D01*
D02*
G37*
G36*
X47715Y17658D02*
Y17455D01*
X47161D01*
Y17673D01*
X47170Y17680D01*
X47223Y17758D01*
X47241Y17850D01*
X47223Y17942D01*
X47170Y18020D01*
X47092Y18073D01*
X47007Y18089D01*
X47012Y18139D01*
X47233D01*
X47715Y17658D01*
D02*
G37*
G36*
X45436Y18186D02*
X45436Y18186D01*
X45489Y18152D01*
X45550Y18139D01*
X46488D01*
X46493Y18089D01*
X46408Y18073D01*
X46330Y18020D01*
X46277Y17942D01*
X46259Y17850D01*
X46277Y17758D01*
X46330Y17680D01*
X46339Y17673D01*
Y17455D01*
X46030D01*
X46024Y17486D01*
X45989Y17538D01*
X45989Y17538D01*
X43914Y19614D01*
X43861Y19648D01*
X43800Y19661D01*
X43800Y19661D01*
X42377D01*
X42370Y19670D01*
X42333Y19695D01*
Y19755D01*
X42370Y19780D01*
X42377Y19789D01*
X43833D01*
X45436Y18186D01*
D02*
G37*
G36*
X45572Y17501D02*
X45553Y17455D01*
X45036D01*
Y17525D01*
X45036Y17525D01*
X45024Y17586D01*
X44989Y17638D01*
X44989Y17638D01*
X43514Y19114D01*
X43461Y19148D01*
X43400Y19161D01*
X43400Y19161D01*
X42377D01*
X42370Y19170D01*
X42292Y19223D01*
X42282Y19225D01*
Y19275D01*
X42292Y19277D01*
X42370Y19330D01*
X42377Y19339D01*
X43733D01*
X45572Y17501D01*
D02*
G37*
G36*
X44668Y17505D02*
X44647Y17455D01*
X44536D01*
Y17475D01*
X44524Y17536D01*
X44489Y17588D01*
X44489Y17588D01*
X43414Y18664D01*
X43361Y18698D01*
X43300Y18711D01*
X43300Y18711D01*
X42377D01*
X42370Y18720D01*
X42333Y18745D01*
Y18805D01*
X42370Y18830D01*
X42377Y18839D01*
X43333D01*
X44668Y17505D01*
D02*
G37*
G36*
X44122Y17501D02*
X44103Y17455D01*
X43578D01*
X43536Y17475D01*
X43524Y17536D01*
X43489Y17588D01*
X42885Y18192D01*
X42833Y18227D01*
X42771Y18239D01*
X42771Y18239D01*
X42377D01*
X42370Y18249D01*
X42316Y18285D01*
Y18344D01*
X42370Y18380D01*
X42377Y18389D01*
X43233D01*
X44122Y17501D01*
D02*
G37*
D19*
X44700Y20000D02*
D03*
Y20722D02*
D03*
Y21445D02*
D03*
X45422Y20000D02*
D03*
Y20722D02*
D03*
Y21445D02*
D03*
X46145Y20000D02*
D03*
Y20722D02*
D03*
Y21445D02*
D03*
D20*
X48375Y16982D02*
D03*
X47875D02*
D03*
X47375D02*
D03*
X46875D02*
D03*
X46375D02*
D03*
X45875D02*
D03*
X45375D02*
D03*
X44875D02*
D03*
X44375D02*
D03*
X43875D02*
D03*
X43375D02*
D03*
X42875D02*
D03*
X42375D02*
D03*
X41875D02*
D03*
Y23675D02*
D03*
X42375D02*
D03*
X42875D02*
D03*
X43375D02*
D03*
X43875D02*
D03*
X44375D02*
D03*
X44875D02*
D03*
X45375D02*
D03*
X45875D02*
D03*
X46375D02*
D03*
X46875D02*
D03*
X47375D02*
D03*
X47875D02*
D03*
X48375D02*
D03*
D21*
X41481Y18079D02*
D03*
Y18579D02*
D03*
Y19079D02*
D03*
Y19579D02*
D03*
Y20079D02*
D03*
Y20579D02*
D03*
Y21079D02*
D03*
Y21579D02*
D03*
Y22079D02*
D03*
Y22579D02*
D03*
D22*
X49778Y26350D02*
D03*
X47022D02*
D03*
D23*
X12295Y14350D02*
D03*
X11705D02*
D03*
X12395Y12000D02*
D03*
X11805D02*
D03*
Y11300D02*
D03*
X12395D02*
D03*
X16495Y14300D02*
D03*
X15905D02*
D03*
X16595Y11950D02*
D03*
X16005D02*
D03*
Y11250D02*
D03*
X16595D02*
D03*
X20695Y14250D02*
D03*
X20105D02*
D03*
X20745Y11950D02*
D03*
X20155D02*
D03*
X20150Y11250D02*
D03*
X20741D02*
D03*
X24900Y14250D02*
D03*
X24309D02*
D03*
X24950Y12000D02*
D03*
X24359D02*
D03*
Y11300D02*
D03*
X24950D02*
D03*
X49145Y15400D02*
D03*
X48555D02*
D03*
X42241Y15550D02*
D03*
X41650D02*
D03*
X48295Y24850D02*
D03*
X47705D02*
D03*
X45580Y26350D02*
D03*
X46170D02*
D03*
D24*
X12050Y13744D02*
D03*
X11676Y12956D02*
D03*
X12424D02*
D03*
X16250Y13694D02*
D03*
X15876Y12906D02*
D03*
X16624D02*
D03*
X20450Y13650D02*
D03*
X20076Y12863D02*
D03*
X20824D02*
D03*
X24600Y13594D02*
D03*
X24226Y12806D02*
D03*
X24974D02*
D03*
D25*
X13500Y12987D02*
D03*
Y11413D02*
D03*
X17750Y12975D02*
D03*
Y11400D02*
D03*
X21950Y12987D02*
D03*
Y11413D02*
D03*
X26100Y12987D02*
D03*
Y11413D02*
D03*
D26*
X13850Y14300D02*
D03*
X12950D02*
D03*
X18100Y14250D02*
D03*
X17200D02*
D03*
X22250Y14300D02*
D03*
X21350D02*
D03*
X26500D02*
D03*
X25600D02*
D03*
X39100Y15700D02*
D03*
X40000D02*
D03*
D27*
X43350Y11341D02*
D03*
Y10750D02*
D03*
X44250Y12305D02*
D03*
Y12895D02*
D03*
X48600Y13291D02*
D03*
Y12700D02*
D03*
X44250Y10755D02*
D03*
Y11345D02*
D03*
X46400Y25109D02*
D03*
Y25700D02*
D03*
X45600Y25105D02*
D03*
Y25695D02*
D03*
D28*
X43350Y12906D02*
D03*
Y12006D02*
D03*
D29*
X49750Y14478D02*
D03*
Y11722D02*
D03*
D30*
X47492Y11700D02*
D03*
D31*
X45208Y10794D02*
D03*
Y11700D02*
D03*
Y12606D02*
D03*
D32*
X40850Y11094D02*
D03*
Y14519D02*
D03*
D56*
X33450Y18593D02*
X40107Y25250D01*
X41950D01*
X42250Y25850D02*
X43375Y24725D01*
X39807Y25850D02*
X42250D01*
X32550Y18593D02*
X39807Y25850D01*
X41950Y25250D02*
X42875Y24325D01*
X43375Y23675D02*
Y24725D01*
X40232Y23675D02*
X41875D01*
X35150Y18593D02*
X40232Y23675D01*
X24309Y15559D02*
X25850Y17100D01*
X24309Y14250D02*
Y15559D01*
X20105Y15655D02*
X21650Y17200D01*
X20105Y14250D02*
Y15655D01*
X15905Y15705D02*
X17400Y17200D01*
X15905Y14300D02*
Y15705D01*
X11705Y15727D02*
X13178Y17200D01*
X11705Y14350D02*
Y15727D01*
X47875Y22600D02*
Y23675D01*
X47600Y12750D02*
Y14400D01*
Y12750D02*
X47650Y12700D01*
X44250Y11395D02*
X44904D01*
X46306Y12700D02*
X47650D01*
X48600D01*
X47600Y14400D02*
Y15400D01*
X44505Y25695D02*
X45600D01*
X43400Y26800D02*
X44505Y25695D01*
X43400Y26800D02*
Y28500D01*
X40343Y24600D02*
X41900D01*
X42375Y24125D01*
Y23675D02*
Y24125D01*
X42875Y23675D02*
Y24325D01*
X34350Y18600D02*
Y18607D01*
X40343Y24600D01*
X24950Y10750D02*
Y11300D01*
X26100Y11100D02*
Y11413D01*
X25300Y10300D02*
X26100Y11100D01*
X21950Y10300D02*
X25300D01*
X12400Y10700D02*
Y11295D01*
X12395Y11300D02*
X12400Y11295D01*
X16595Y10705D02*
X16600Y10700D01*
X16595Y10705D02*
Y11250D01*
X20741Y10709D02*
X20750Y10700D01*
X20741Y10709D02*
Y11250D01*
X17750Y10300D02*
X21950D01*
Y11413D01*
X14200Y10300D02*
X17750D01*
X13500Y11000D02*
X14200Y10300D01*
X25919Y12806D02*
X26100Y12987D01*
X24974Y12806D02*
X25919D01*
X26100Y11413D02*
X27886D01*
X24974Y12024D02*
Y12806D01*
X24950Y12000D02*
X24974Y12024D01*
X47705Y24850D02*
Y27805D01*
X48400Y28500D01*
X47375Y23675D02*
Y24134D01*
X46400Y25109D02*
X47375Y24134D01*
X46400Y25700D02*
X46855D01*
X47705Y24850D01*
X47862Y24693D01*
Y23688D02*
Y24693D01*
Y23688D02*
X47875Y23675D01*
X49145Y15083D02*
Y15400D01*
Y15083D02*
X49750Y14478D01*
X45208Y11700D02*
X45306D01*
X46306Y12700D01*
X40850Y11094D02*
X41194Y10750D01*
X43350D01*
X44664Y10250D02*
X45208Y10794D01*
X43800Y10250D02*
X44664D01*
X43350Y10700D02*
X43800Y10250D01*
X43350Y10700D02*
Y10750D01*
X44189Y12906D02*
X44250Y12845D01*
X43350Y12906D02*
X44189D01*
X43589Y12006D02*
X44250Y11345D01*
X43350Y12006D02*
X43589D01*
X44904Y11395D02*
X45208Y11700D01*
X41500Y15700D02*
X41650Y15550D01*
X40000Y15700D02*
X41500D01*
X39100Y12844D02*
X40850Y11094D01*
X39100Y12844D02*
Y15700D01*
X40506Y10750D02*
X40850Y11094D01*
X28549Y10750D02*
X40506D01*
X27886Y11413D02*
X28549Y10750D01*
X27886Y11413D02*
X28374Y11900D01*
X17750Y10300D02*
Y11400D01*
X13500Y11000D02*
Y11413D01*
X24359Y11300D02*
Y12000D01*
X20150Y11250D02*
X20155Y11255D01*
Y11950D01*
X16005Y11250D02*
Y11950D01*
X11805Y11300D02*
Y12000D01*
X24226Y12133D02*
X24359Y12000D01*
X24226Y12133D02*
Y12806D01*
X20745Y11950D02*
X20824Y12029D01*
Y12863D01*
X20076Y12029D02*
X20155Y11950D01*
X20076Y12029D02*
Y12863D01*
X21825D02*
X21950Y12987D01*
X20824Y12863D02*
X21825D01*
X16624Y12906D02*
X16693Y12975D01*
X17750D01*
X16595Y11950D02*
X16624Y11979D01*
Y12906D01*
X15876Y12079D02*
X16005Y11950D01*
X15876Y12079D02*
Y12906D01*
X13469Y12956D02*
X13500Y12987D01*
X12424Y12956D02*
X13469D01*
X11676Y12129D02*
X11805Y12000D01*
X11676Y12129D02*
Y12956D01*
X12395Y12000D02*
X12424Y12029D01*
Y12956D01*
X11705Y14089D02*
X12050Y13744D01*
X11705Y14089D02*
Y14350D01*
X15905Y14039D02*
X16250Y13694D01*
X15905Y14039D02*
Y14300D01*
X24309Y13884D02*
X24600Y13594D01*
X24309Y13884D02*
Y14250D01*
X20105Y13995D02*
X20450Y13650D01*
X20105Y13995D02*
Y14250D01*
X25550D02*
X25600Y14300D01*
X24900Y14250D02*
X25550D01*
X21300D02*
X21350Y14300D01*
X20695Y14250D02*
X21300D01*
X17150Y14300D02*
X17200Y14250D01*
X16495Y14300D02*
X17150D01*
X12900Y14350D02*
X12950Y14300D01*
X12295Y14350D02*
X12900D01*
D57*
X43200Y21084D02*
Y22150D01*
X44375Y23325D01*
Y23675D01*
X43650Y21084D02*
Y22000D01*
X44875Y23225D01*
Y23675D01*
X44150Y21084D02*
Y22000D01*
X45375Y23225D01*
Y23675D01*
X48095Y13291D02*
X48600D01*
X48050Y13336D02*
X48095Y13291D01*
X48550Y15405D02*
X48555Y15400D01*
Y13336D02*
X48600Y13291D01*
X48555Y13336D02*
Y15400D01*
X47375Y16175D02*
Y16982D01*
X46600Y15400D02*
X47375Y16175D01*
X45875Y15675D02*
Y16982D01*
X45600Y15400D02*
X45875Y15675D01*
X42300Y16150D02*
X42800D01*
X41875Y16575D02*
X42300Y16150D01*
X41875Y16575D02*
Y16982D01*
X47300Y18300D02*
X47875Y17725D01*
X45550Y18300D02*
X47300D01*
X46875Y16982D02*
X47000Y17107D01*
Y17850D01*
X46500Y17107D02*
Y17850D01*
X46375Y16982D02*
X46500Y17107D01*
X43900Y19950D02*
X45550Y18300D01*
X47875Y16982D02*
Y17725D01*
X42200Y19950D02*
X43900D01*
X45875Y16982D02*
Y17425D01*
X43800Y19500D02*
X45875Y17425D01*
X42200Y19500D02*
X43800D01*
X42200Y19000D02*
X43400D01*
X44875Y17525D01*
X42200Y18550D02*
X43300D01*
X44875Y16982D02*
Y17525D01*
X43300Y18550D02*
X44375Y17475D01*
Y16982D02*
Y17475D01*
X42200Y18079D02*
X42771D01*
X43375Y17475D01*
Y16982D02*
Y17475D01*
X46170Y26350D02*
X47177D01*
X45580Y25715D02*
X45600Y25695D01*
X45580Y25715D02*
Y26350D01*
X45600Y25695D02*
X45705D01*
X46291Y25109D01*
X46400D01*
D58*
X15450Y27450D02*
D03*
X17450D02*
D03*
X41700Y27700D02*
D03*
X39700D02*
D03*
X25900Y27450D02*
D03*
X23900D02*
D03*
X13250D02*
D03*
X11250D02*
D03*
X21700D02*
D03*
X19700D02*
D03*
D59*
X44700Y20361D02*
D03*
Y21084D02*
D03*
X45061Y20000D02*
D03*
Y20722D02*
D03*
Y21445D02*
D03*
X45422Y20361D02*
D03*
Y21084D02*
D03*
X45784Y20000D02*
D03*
Y20722D02*
D03*
Y21445D02*
D03*
X46145Y20361D02*
D03*
Y21084D02*
D03*
D60*
X13178Y16200D02*
D03*
Y17200D02*
D03*
Y21200D02*
D03*
Y24200D02*
D03*
X21728Y16150D02*
D03*
Y17150D02*
D03*
Y21150D02*
D03*
Y24150D02*
D03*
X17478Y16200D02*
D03*
Y17200D02*
D03*
Y21200D02*
D03*
Y24200D02*
D03*
X25978Y16200D02*
D03*
Y17200D02*
D03*
Y21200D02*
D03*
Y24200D02*
D03*
X34397Y28632D02*
D03*
X31326D02*
D03*
X37350Y11900D02*
D03*
X28374D02*
D03*
D61*
X47600Y15400D02*
D03*
X48400Y28500D02*
D03*
D62*
X46600Y15400D02*
D03*
X45600D02*
D03*
X44600D02*
D03*
X43600D02*
D03*
Y14400D02*
D03*
X44600D02*
D03*
X45600D02*
D03*
X46600D02*
D03*
X47600D02*
D03*
X39800Y18100D02*
D03*
Y19100D02*
D03*
Y20100D02*
D03*
Y21100D02*
D03*
X47400Y28500D02*
D03*
X46400D02*
D03*
X45400D02*
D03*
X44400D02*
D03*
X43400D02*
D03*
D63*
X49900Y29200D02*
D03*
X10800Y10900D02*
D03*
X49050D02*
D03*
D64*
X88650Y10305D02*
D03*
D65*
X39800Y22100D02*
D03*
D66*
X33450Y18593D02*
D03*
X35150D02*
D03*
X32550D02*
D03*
X47875Y22600D02*
D03*
X48050Y13336D02*
D03*
X47000Y17850D02*
D03*
X46500D02*
D03*
X43200Y21084D02*
D03*
X43650D02*
D03*
X44150D02*
D03*
X42200Y18079D02*
D03*
Y18550D02*
D03*
Y19000D02*
D03*
Y19500D02*
D03*
Y19950D02*
D03*
X42800Y16150D02*
D03*
X24950Y10750D02*
D03*
X34350Y18600D02*
D03*
X12400Y10700D02*
D03*
X16600D02*
D03*
X20750D02*
D03*
M02*
