G04*
G04 #@! TF.GenerationSoftware,Altium Limited,Altium Designer,18.0.7 (293)*
G04*
G04 Layer_Color=255*
%FSLAX24Y24*%
%MOIN*%
G70*
G01*
G75*
%ADD58C,0.1100*%
%ADD59C,0.0118*%
%ADD60C,0.0591*%
%ADD61R,0.0630X0.0630*%
%ADD62C,0.0630*%
%ADD63C,0.1260*%
%ADD64C,0.1181*%
%ADD65R,0.0630X0.0630*%
D58*
X15450Y27450D02*
D03*
X17450D02*
D03*
X41700Y27700D02*
D03*
X39700D02*
D03*
X25900Y27450D02*
D03*
X23900D02*
D03*
X13250D02*
D03*
X11250D02*
D03*
X21700D02*
D03*
X19700D02*
D03*
D59*
X44700Y20361D02*
D03*
Y21084D02*
D03*
X45061Y20000D02*
D03*
Y20722D02*
D03*
Y21445D02*
D03*
X45422Y20361D02*
D03*
Y21084D02*
D03*
X45784Y20000D02*
D03*
Y20722D02*
D03*
Y21445D02*
D03*
X46145Y20361D02*
D03*
Y21084D02*
D03*
D60*
X13178Y16200D02*
D03*
Y17200D02*
D03*
Y21200D02*
D03*
Y24200D02*
D03*
X21728Y16150D02*
D03*
Y17150D02*
D03*
Y21150D02*
D03*
Y24150D02*
D03*
X17478Y16200D02*
D03*
Y17200D02*
D03*
Y21200D02*
D03*
Y24200D02*
D03*
X25978Y16200D02*
D03*
Y17200D02*
D03*
Y21200D02*
D03*
Y24200D02*
D03*
X34397Y28632D02*
D03*
X31326D02*
D03*
X37350Y11900D02*
D03*
X28374D02*
D03*
D61*
X47600Y15400D02*
D03*
X48400Y28500D02*
D03*
D62*
X46600Y15400D02*
D03*
X45600D02*
D03*
X44600D02*
D03*
X43600D02*
D03*
Y14400D02*
D03*
X44600D02*
D03*
X45600D02*
D03*
X46600D02*
D03*
X47600D02*
D03*
X39800Y18100D02*
D03*
Y19100D02*
D03*
Y20100D02*
D03*
Y21100D02*
D03*
X47400Y28500D02*
D03*
X46400D02*
D03*
X45400D02*
D03*
X44400D02*
D03*
X43400D02*
D03*
D63*
X49900Y29200D02*
D03*
X10800Y10900D02*
D03*
X49050D02*
D03*
D64*
X88650Y10305D02*
D03*
D65*
X39800Y22100D02*
D03*
M02*
