G04*
G04 #@! TF.GenerationSoftware,Altium Limited,Altium Designer,18.0.7 (293)*
G04*
G04 Layer_Color=8421504*
%FSLAX24Y24*%
%MOIN*%
G70*
G01*
G75*
%ADD19R,0.0524X0.0524*%
%ADD20R,0.0354X0.0787*%
%ADD21R,0.0787X0.0354*%
%ADD22R,0.0472X0.0315*%
%ADD23R,0.0394X0.0374*%
%ADD24R,0.0315X0.0354*%
%ADD25R,0.0669X0.0984*%
%ADD26R,0.0500X0.0550*%
%ADD27R,0.0374X0.0394*%
%ADD28R,0.0550X0.0500*%
%ADD29R,0.0315X0.0472*%
%ADD30R,0.0945X0.1299*%
%ADD31R,0.0945X0.0394*%
%ADD32R,0.0787X0.1614*%
D19*
X44700Y20000D02*
D03*
Y20722D02*
D03*
Y21445D02*
D03*
X45422Y20000D02*
D03*
Y20722D02*
D03*
Y21445D02*
D03*
X46145Y20000D02*
D03*
Y20722D02*
D03*
Y21445D02*
D03*
D20*
X48375Y16982D02*
D03*
X47875D02*
D03*
X47375D02*
D03*
X46875D02*
D03*
X46375D02*
D03*
X45875D02*
D03*
X45375D02*
D03*
X44875D02*
D03*
X44375D02*
D03*
X43875D02*
D03*
X43375D02*
D03*
X42875D02*
D03*
X42375D02*
D03*
X41875D02*
D03*
Y23675D02*
D03*
X42375D02*
D03*
X42875D02*
D03*
X43375D02*
D03*
X43875D02*
D03*
X44375D02*
D03*
X44875D02*
D03*
X45375D02*
D03*
X45875D02*
D03*
X46375D02*
D03*
X46875D02*
D03*
X47375D02*
D03*
X47875D02*
D03*
X48375D02*
D03*
D21*
X41481Y18079D02*
D03*
Y18579D02*
D03*
Y19079D02*
D03*
Y19579D02*
D03*
Y20079D02*
D03*
Y20579D02*
D03*
Y21079D02*
D03*
Y21579D02*
D03*
Y22079D02*
D03*
Y22579D02*
D03*
D22*
X49778Y26350D02*
D03*
X47022D02*
D03*
D23*
X12295Y14350D02*
D03*
X11705D02*
D03*
X12395Y12000D02*
D03*
X11805D02*
D03*
Y11300D02*
D03*
X12395D02*
D03*
X16495Y14300D02*
D03*
X15905D02*
D03*
X16595Y11950D02*
D03*
X16005D02*
D03*
Y11250D02*
D03*
X16595D02*
D03*
X20695Y14250D02*
D03*
X20105D02*
D03*
X20745Y11950D02*
D03*
X20155D02*
D03*
X20150Y11250D02*
D03*
X20741D02*
D03*
X24900Y14250D02*
D03*
X24309D02*
D03*
X24950Y12000D02*
D03*
X24359D02*
D03*
Y11300D02*
D03*
X24950D02*
D03*
X49145Y15400D02*
D03*
X48555D02*
D03*
X42241Y15550D02*
D03*
X41650D02*
D03*
X48295Y24850D02*
D03*
X47705D02*
D03*
X45580Y26350D02*
D03*
X46170D02*
D03*
D24*
X12050Y13744D02*
D03*
X11676Y12956D02*
D03*
X12424D02*
D03*
X16250Y13694D02*
D03*
X15876Y12906D02*
D03*
X16624D02*
D03*
X20450Y13650D02*
D03*
X20076Y12863D02*
D03*
X20824D02*
D03*
X24600Y13594D02*
D03*
X24226Y12806D02*
D03*
X24974D02*
D03*
D25*
X13500Y12987D02*
D03*
Y11413D02*
D03*
X17750Y12975D02*
D03*
Y11400D02*
D03*
X21950Y12987D02*
D03*
Y11413D02*
D03*
X26100Y12987D02*
D03*
Y11413D02*
D03*
D26*
X13850Y14300D02*
D03*
X12950D02*
D03*
X18100Y14250D02*
D03*
X17200D02*
D03*
X22250Y14300D02*
D03*
X21350D02*
D03*
X26500D02*
D03*
X25600D02*
D03*
X39100Y15700D02*
D03*
X40000D02*
D03*
D27*
X43350Y11341D02*
D03*
Y10750D02*
D03*
X44250Y12305D02*
D03*
Y12895D02*
D03*
X48600Y13291D02*
D03*
Y12700D02*
D03*
X44250Y10755D02*
D03*
Y11345D02*
D03*
X46400Y25109D02*
D03*
Y25700D02*
D03*
X45600Y25105D02*
D03*
Y25695D02*
D03*
D28*
X43350Y12906D02*
D03*
Y12006D02*
D03*
D29*
X49750Y14478D02*
D03*
Y11722D02*
D03*
D30*
X47492Y11700D02*
D03*
D31*
X45208Y10794D02*
D03*
Y11700D02*
D03*
Y12606D02*
D03*
D32*
X40850Y11094D02*
D03*
Y14519D02*
D03*
M02*
