M48
;Layer_Color=9474304
;FILE_FORMAT=2:4
INCH,LZ
;TYPE=PLATED
T1F00S00C0.0079
T2F00S00C0.0280
T3F00S00C0.0394
T4F00S00C0.0433
T5F00S00C0.0500
T6F00S00C0.1063
%
T01
X0447Y020361
Y021084
X045061Y020722
X045422Y021084
X045061Y021445
X045784
Y020722
X046145Y021084
Y020361
X045784Y02
X045061
X045422Y020361
T02
X0124Y0107
X0166
X02075
X02495Y01075
X04805Y013336
X047Y01785
X047875Y0226
X04415Y021084
X04365
X0432
X0422Y01995
Y0195
Y019
Y01855
Y018079
X0428Y01615
X0465Y01785
X03515Y018593
X03435Y0186
X03345Y018593
X03255
T03
X028374Y0119
X03735
X034397Y028632
X031326
X025978Y0242
Y0212
Y0172
Y0162
X021728Y01615
Y01715
Y02115
Y02415
X017478Y0242
Y0212
Y0172
Y0162
X013178
Y0172
Y0212
Y0242
T04
X0436Y0144
Y0154
X0446
X0456
X0466
Y0144
X0456
X0446
X0476
Y0154
X0474Y0285
X0484
X0464
X0454
X0444
X0434
X0398Y0221
Y0211
Y0201
Y0191
Y0181
T05
X0397Y0277
X0417
X0259Y02745
X0239
X0217
X0197
X01745
X01545
X01325
X01125
T06
X0108Y0109
X04905
X08865Y010305
X0499Y0292
M30
